<?xml version="1.0" encoding="UTF-8"?>
<!DOCTYPE svg PUBLIC "-//W3C//DTD SVG 1.1//EN" "http://www.w3.org/Graphics/SVG/1.1/DTD/svg11.dtd">
<svg xmlns="http://www.w3.org/2000/svg" width="1000" height="550">
    <g transform="translate(100, 500) scale(1.2,1.2)"><!-- THE TEXT -->
        <text x="0" y="-350">Comparison Between the Amount of Time each Gender Was Quoted</text>
        <text x="120" y="-330">Within The Selected Articles</text>
        <rect x="500" y="-410" height="190" width="180" style="stroke:black; stroke-width: 1; fill: none"/>
        <text x="505" y="-390">All Articles (All)- 238</text>
        <text x="505" y="-370">Election Results (ER)- 29</text>
        <text x="505" y="-350">Syrian Bombings (SB)- 93</text>
        <text x="505" y="-330">Travel Ban (TB)- 47</text>
        <text x="505" y="-310">Trumps Taxes (TT)- 19</text>
        <text x="505" y="-290">Womens March (WM)- 50</text>
        <text x="505" y="-270" fill="blue">Men - Blue</text>
        <text x="505" y="-250" fill="pink">Women - Pink</text>
        <text x="505" y="-230">Undocumented - Black</text><!-- THE BARS --><!-- articles -->
        <rect x="20" y="-238" height="238" width="20" style="stroke: black ; stroke-width: 2;"/>
        <rect x="20" y="-215" height="168" width="20" style="stroke: blue; stroke-width: 2; fill: blue;"/>
        <rect x="20" y="-47" height="47" width="20" style="stroke: pink; stroke-width: 2; fill: pink;"/><!-- election results -->
        <rect x="60" y="-29" height="29" width="20" style="stroke: black; stroke-width: 2;"/>
        <rect x="60" y="-29" height="28" width="20" style="stroke: blue; stroke-width: 2; fill: blue;"/>
        <rect x="60" y="-1" height="1" width="20" style="stroke: pink; stroke-width: 2; fill: pink;"/><!-- syrian bombings -->
        <rect x="100" y="-93" height="93" width="20" style="stroke: black; stroke-width: 2;"/>
        <rect x="100" y="-76" height="74" width="20" style="stroke: blue; stroke-width: 2; fill: blue;"/>
        <rect x="100" y="-2" height="2" width="20" style="stroke: pink; stroke-width: 2; fill: pink;"/><!-- travel ban -->
        <rect x="140" y="-47" height="47" width="20" style="stroke: black; stroke-width: 2;"/>
        <rect x="140" y="-46" height="40" width="20" style="stroke: blue; stroke-width: 2; fill: blue;"/>
        <rect x="140" y="-6" height="6" width="20" style="stroke: pink; stroke-width: 2; fill: pink;"/><!-- trumps taxes -->
        <rect x="180" y="-19" height="19" width="20" style="stroke: black; stroke-width: 2;"/>
        <rect x="180" y="-14" height="14" width="20" style="stroke: blue; stroke-width: 2; fill: blue;"/>
        <rect x="180" y="-0" height="0" width="20" style="stroke: pink; stroke-width: 2; fill: pink"/><!-- womens march -->
        <rect x="220" y="-50" height="50" width="20" style="stroke: black; stroke-width: 2;"/>
        <rect x="220" y="-50" height="12" width="20" style="stroke: blue; stroke-width: 2; fill: blue;"/>
        <rect x="220" y="-38" height="38" width="20" style="stroke: pink; stroke-width: 2; fill: pink;"/>
        <line x1="0" y1="0" x2="300" y2="0" style="stroke: black; stroke-width: 2"/>
        <line x1="0" y1="0" x2="0" y2="-240" style="stroke: black; stroke-width: 2"/>
        <text x="-50" y="-200" style="writing-mode: tb; transform: rotate(360deg);">Number of Gender Mentions</text>
        <text x="-25" y="-238">240</text>
        <text x="-25" y="-120">120</text>
        <text x="-25" y="-160">160</text>
        <text x="-25" y="-200">200</text>
        <text x="-25" y="-80">80</text>
        <text x="-25" y="0">0</text>
        <text x="-25" y="-40">40</text>
        <text x="20" y="20">All</text>
        <text x="60" y="20">ER</text>
        <text x="100" y="20">SB</text>
        <text x="140" y="20">TB</text>
        <text x="180" y="20">TT</text>
        <text x="220" y="20">WM</text>
    </g>
</svg>