<?xml version="1.0" encoding="UTF-8"?>
<!DOCTYPE svg PUBLIC "-//W3C//DTD SVG 1.1//EN" "http://www.w3.org/Graphics/SVG/1.1/DTD/svg11.dtd">
<svg xmlns="http://www.w3.org/2000/svg" width="1000" height="600">
    <g transform="translate(100, 500) scale(1.2,1.2)"><!-- THE TEXT -->
        <text x="0" y="-350">Comparison Between the Amount of Time Each Gender Was Quoted</text>
        <text x="120" y="-330">Within The Selected News Sources</text>
        <rect x="580" y="-410" height="170" width="150" style="stroke:black; stroke-width: 1; fill: none"/>
        <text x="600" y="-390">Legend</text>
        <text x="600" y="-370">BBC- 58</text>
        <text x="600" y="-350">CNN- 77</text>
        <text x="600" y="-330">FOX- 57</text>
        <text x="600" y="-310">NPR- 46</text>
        <text x="600" y="-290" fill="blue">Men - Blue</text>
        <text x="600" y="-270" fill="pink">Women - Pink</text>
        <text x="600" y="-250">Groups - Black</text><!-- THE BARS --><!-- BBC -->
        <g transform="scale (1.4,1.4)">
            <rect x="20" y="-58" height="58" width="20" style="stroke: black ; stroke-width: 2;"/>
            <rect x="20" y="-42" height="31" width="20" style="stroke: blue; stroke-width: 2; fill: blue;"/>
            <rect x="20" y="-11" height="11" width="20" style="stroke: pink; stroke-width: 2; fill: pink;"/><!-- CNN -->
            <rect x="60" y="-77" height="77" width="20" style="stroke: black; stroke-width: 2;"/>
            <rect x="60" y="-72" height="59" width="20" style="stroke: blue; stroke-width: 2; fill: blue;"/>
            <rect x="60" y="-13" height="13" width="20" style="stroke: pink; stroke-width: 2; fill: pink;"/><!-- FOX -->
            <rect x="100" y="-57" height="57" width="20" style="stroke: black; stroke-width: 2;"/>
            <rect x="100" y="-56" height="45" width="20" style="stroke: blue; stroke-width: 2; fill: blue;"/>
            <rect x="100" y="-11" height="11" width="20" style="stroke: pink; stroke-width: 2; fill: pink;"/><!-- NPR -->
            <rect x="140" y="-46" height="46" width="20" style="stroke: black; stroke-width: 2;"/>
            <rect x="140" y="-45" height="33" width="20" style="stroke: blue; stroke-width: 2; fill: blue;"/>
            <rect x="140" y="-12" height="12" width="20" style="stroke: pink; stroke-width: 2; fill: pink;"/>
            <line x1="0" y1="0" x2="200" y2="0" style="stroke: black; stroke-width: 2"/>
            <line x1="0" y1="0" x2="0" y2="-120" style="stroke: black; stroke-width: 2"/>
            <text x="-25" y="-80">80</text>
            <text x="-25" y="0">0</text>
            <text x="-25" y="-40">40</text>
            <text x="-30" y="-40" style="writing-mode: tb; transform: rotate(180deg);">BBC</text>
            <text x="-70" y="-40" style="writing-mode: tb; transform: rotate(180deg);">CNN</text>
            <text x="-110" y="-40" style="writing-mode: tb; transform: rotate(180deg);">FOX</text>
            <text x="-150" y="-40" style="writing-mode: tb; transform: rotate(180deg);">NPR</text>
        </g>
    </g>
</svg>